<svg xmlns="http://www.w3.org/2000/svg" viewBox="166.47537127118642 181.84819032 255.59854983050846 97.65921332" id="svg9" version="1.1" style="max-height: 500px" width="255.59854983050846" height="97.65921332">
  <defs id="defs9"/>
  
  <path id="path1" style="fill:#102454;fill-rule:evenodd" d="M 39.6805,20.3956 H 549.9167 V 866.5373 H 39.6805 Z"/>
  <g id="Layer1000">
    <path id="path2" style="fill:#28a5dd;fill-rule:evenodd" d="m 297.2322,202.2647 c 15.7811,0 28.5742,12.7931 28.5742,28.5742 0,15.7811 -12.7931,28.5742 -28.5742,28.5742 -15.7811,0 -28.5742,-12.7931 -28.5742,-28.5742 0,-15.7811 12.7931,-28.5742 28.5742,-28.5742 z m 0,7.3957 c 11.6966,0 21.1786,9.4819 21.1786,21.1785 0,11.6966 -9.482,21.1785 -21.1786,21.1785 -11.6966,0 -21.1785,-9.4819 -21.1785,-21.1785 0,-11.6966 9.4819,-21.1785 21.1785,-21.1785 z m 0,5.3787 c 8.7261,0 15.7999,7.0738 15.7999,15.7998 0,8.7261 -7.0738,15.7999 -15.7999,15.7999 -8.726,0 -15.7998,-7.0738 -15.7998,-15.7999 0,-8.726 7.0738,-15.7998 15.7998,-15.7998 z m 4.8745,1.905 c 2.0732,0 3.754,1.6807 3.754,3.7538 0,2.0732 -1.6808,3.754 -3.754,3.754 -2.0731,0 -3.7538,-1.6808 -3.7538,-3.754 0,-2.0731 1.6807,-3.7538 3.7538,-3.7538 z"/>
    <path id="path3" style="fill:#28a5dd;fill-rule:evenodd" d="m 242.8877,221.0493 c 1.2328,-3.5857 13.8405,-30.9231 45.1039,-31.5954 31.2634,-0.6724 36.3558,16.2094 74.9051,24.8954 38.5494,8.686 55.1683,-4.3317 60.3308,-6.8867 -12.8571,14.6098 -65.3548,29.7891 -86.0869,28.4621 -2.8433,-0.182 -6.009,-0.8403 -1.8068,-3.6978 4.2021,-2.8575 18.041,-9.0205 18.041,-9.0205 -29.8631,-6.2189 -42.8605,-22.304 -66.3363,-21.9677 -23.4758,0.3362 -36.587,11.8546 -44.1508,19.8106 z"/>
    <path id="path4" style="fill:#1675b7;fill-rule:evenodd" d="m 297.2322,209.6604 c 11.6966,0 21.1786,9.4819 21.1786,21.1785 0,11.6966 -9.482,21.1785 -21.1786,21.1785 -11.6966,0 -21.1785,-9.4819 -21.1785,-21.1785 0,-11.6966 9.4819,-21.1785 21.1785,-21.1785 z m 0,5.3787 c 8.7261,0 15.7999,7.0738 15.7999,15.7998 0,8.7261 -7.0738,15.7999 -15.7999,15.7999 -8.726,0 -15.7998,-7.0738 -15.7998,-15.7999 0,-8.726 7.0738,-15.7998 15.7998,-15.7998 z m 4.8745,1.905 c 2.0732,0 3.754,1.6807 3.754,3.7538 0,2.0732 -1.6808,3.754 -3.754,3.754 -2.0731,0 -3.7538,-1.6808 -3.7538,-3.754 0,-2.0731 1.6807,-3.7538 3.7538,-3.7538 z"/>
    <path id="path5" style="fill:#102a83;fill-rule:evenodd" d="m 297.2322,215.0391 c 8.7261,0 15.7999,7.0738 15.7999,15.7998 0,8.7261 -7.0738,15.7999 -15.7999,15.7999 -8.726,0 -15.7998,-7.0738 -15.7998,-15.7999 0,-8.726 7.0738,-15.7998 15.7998,-15.7998 z m 4.8745,1.905 c 2.0732,0 3.754,1.6807 3.754,3.7538 0,2.0732 -1.6808,3.754 -3.754,3.754 -2.0731,0 -3.7538,-1.6808 -3.7538,-3.754 0,-2.0731 1.6807,-3.7538 3.7538,-3.7538 z"/>
    <path id="path6" style="fill:#ffffff;fill-rule:evenodd" d="m 302.1068,216.9441 a 3.754,3.7539 0 0 1 3.754,3.7539 3.754,3.7539 0 1 1 -3.754,-3.7539 z"/>
    <path id="path7" style="fill:#b1c900;fill-rule:evenodd" d="m 353.8229,240.8776 c -1.2328,3.5857 -13.8405,30.9231 -45.1039,31.5954 -31.2635,0.6724 -36.3558,-16.2094 -74.9052,-24.8954 -38.5493,-8.686 -55.1682,4.3316 -60.3307,6.8867 12.8571,-14.6098 65.3548,-29.7891 86.0869,-28.4622 2.8433,0.1821 6.0089,0.8404 1.8068,3.6979 -4.2021,2.8575 -18.041,9.0205 -18.041,9.0205 29.8631,6.2189 42.8605,22.304 66.3363,21.9677 23.4758,-0.3362 36.587,-11.8547 44.1508,-19.8106 z"/>
    <text id="text9" y="308.3046" x="153.0675"><tspan id="tspan7" fill="#28a5dd" font-size="31px" font-family="'San Francisco Display SemBd'">Dr T</tspan><tspan id="tspan8" fill="#28a5dd" font-size="31px" font-family="'San Francisco Display SemBd'">RA</tspan><tspan id="tspan9" fill="#28a5dd" font-size="31px" font-family="'San Francisco Display SemBd'">NG EYE CLINIC</tspan></text>
    <path id="path9" style="fill:#ffffff;fill-rule:evenodd" d="m 166.5658,336.2156 4.1618,-14.5922 h 0.0607 l 4.174,14.5922 h 1.023 l 4.3038,-16.1756 h -1.0961 l -3.7191,14.6653 h -0.0487 L 171.2877,320.04 h -1.0474 l -4.1374,14.6653 h -0.0488 l -3.719,-14.6653 h -1.0962 l 4.2956,16.1756 z m 23.0496,-2.0137 h 0.0445 v 2.0137 h 0.9502 v -8.8228 c 0,-2.444 -1.6362,-3.6743 -4.1658,-3.6743 -2.7567,0 -4.1128,1.4576 -4.2103,3.0206 h 0.9541 c 0.1177,-0.9703 0.9987,-2.1435 3.1952,-2.1435 1.9613,0 3.2522,0.8889 3.2522,2.9395 v 1.7864 h -3.7635 c -2.753,0 -4.174,1.3887 -4.174,3.439 0,2.2654 1.6321,3.6703 4.0195,3.6703 2.3632,0 3.577,-1.4414 3.8979,-2.2289 z m -3.78,1.3601 c -1.8028,0 -3.1224,-1.0596 -3.1224,-2.8259 0,-1.5024 0.9868,-2.562 3.1833,-2.562 h 3.7392 v 1.8718 c 0,2.095 -1.7336,3.5161 -3.8001,3.5161 z m 9.6877,-4.377 1.7132,-1.5548 5.1605,6.5854 h 1.2019 l -5.6517,-7.219 5.4366,-5.2537 h -1.2141 l -6.5897,6.2892 h -0.0567 v -10.8774 h -0.9502 v 17.0609 h 0.9502 z m 14.4745,5.2497 c 3.0249,0 4.3362,-1.9244 4.4782,-3.321 h -0.9907 c -0.1298,1.076 -1.1772,2.4443 -3.4875,2.4443 -2.5013,0 -3.9668,-1.7989 -3.9668,-4.7789 v -0.6333 h 8.6236 v -0.6296 c 0,-3.7434 -1.8473,-5.7937 -4.7991,-5.7937 -2.9435,0 -4.7908,2.0747 -4.7908,5.8059 v 1.2507 c 0,3.5404 1.7864,5.6556 4.9331,5.6556 z m -3.9668,-7.1336 v -0.0488 c 0,-2.9231 1.5021,-4.661 3.8245,-4.661 2.3307,0 3.833,1.7379 3.833,4.661 v 0.0488 z m 26.1556,-5.3958 h -0.9663 v 7.3854 c 0,2.2005 -1.3723,4.2469 -3.9099,4.2469 -2.0585,0 -3.4064,-1.2952 -3.4064,-3.4835 v -8.1488 h -0.9663 v 8.3231 c 0,2.8341 1.8595,4.2024 4.2307,4.2024 2.3346,0 3.585,-1.3561 4.0031,-2.501 h 0.0488 v 2.2858 h 0.9663 z m 8.9688,12.5294 c 2.5092,0 4.7058,-1.7416 4.7058,-5.2375 v -2.2573 c 0,-3.232 -1.9854,-5.2174 -4.6692,-5.2174 -2.7,0 -3.8084,1.7824 -4.0561,2.5702 h -0.0488 v -2.3673 h -0.9419 v 16.2893 h 0.9663 v -6.3053 h 0.0488 c 0.3574,0.9623 1.474,2.5253 3.9951,2.5253 z m -0.0606,-0.8767 c -2.4605,0 -3.9833,-2.018 -3.9833,-4.515 v -2.0058 c 0,-2.3182 1.4049,-4.4459 3.9589,-4.4459 2.1518,0 3.8165,1.616 3.8165,4.515 v 1.8922 c 0,3.1342 -1.819,4.5595 -3.7921,4.5595 z m 27.4101,-11.6649 h -1.0108 l -2.8301,10.9381 h -0.0732 l -3.4509,-10.9381 h -0.9745 l -3.435,10.9381 h -0.0607 l -2.8179,-10.9381 h -1.084 l 3.4268,12.3186 h 0.9865 l 3.4512,-10.9381 h 0.0448 l 3.4752,10.9381 h 0.9746 z m 2.6958,12.3225 h 0.9501 v -12.2981 h -0.9501 z m -0.3612,-15.7087 c 0,0.479 0.3654,0.8444 0.8323,0.8444 0.4873,0 0.8648,-0.3654 0.8648,-0.8444 0,-0.4873 -0.3775,-0.8527 -0.8648,-0.8527 -0.4669,0 -0.8323,0.3654 -0.8323,0.8527 z m 6.2283,3.3862 h -2.3062 v 0.8445 h 2.3062 v 8.5589 c 0,2.1923 0.7634,2.9395 3.1669,2.9395 0.4873,0 1.0352,-0.0487 1.2506,-0.0813 v -0.8121 c -0.2154,0.0365 -0.7999,0.0731 -1.1653,0.0731 -1.5956,0 -2.2858,-0.4507 -2.2858,-1.9528 v -8.7253 h 3.2966 v -0.8445 h -3.2966 v -2.9965 h -0.9664 z m 7.2839,12.3225 h 0.9502 v -7.4341 c 0,-2.217 1.3683,-4.1658 3.8976,-4.1658 2.2493,0 3.4634,1.6404 3.4634,3.7516 v 7.8483 h 0.9663 v -7.9903 c 0,-2.8136 -1.8107,-4.5028 -4.3321,-4.5028 -2.3063,0 -3.5689,1.3073 -3.9507,2.4848 h -0.0445 v -7.0404 h -0.9502 z m 18.4899,-0.004 h 5.5139 c 3.4265,0 5.3269,-1.7014 5.3269,-4.381 0,-2.5824 -1.7459,-3.8327 -3.6868,-4.036 v -0.0606 c 1.1084,-0.2478 2.7854,-1.3521 2.7854,-3.7355 0,-2.4806 -1.7947,-3.9546 -4.6976,-3.9546 h -5.2418 z m 0.9745,-15.2745 h 4.1131 c 2.3791,0 3.8528,1.1043 3.8528,3.1912 0,2.2901 -1.7824,3.3214 -3.9464,3.3214 h -4.0195 z m 0,7.4058 h 4.6001 c 2.3428,0 4.2672,1.0839 4.2672,3.4999 0,2.298 -1.7336,3.4756 -4.5756,3.4756 h -4.2917 z m 17.5034,8.0917 c 3.0248,0 4.3361,-1.9244 4.4781,-3.321 h -0.9907 c -0.1298,1.076 -1.1772,2.4443 -3.4874,2.4443 -2.5013,0 -3.9668,-1.7989 -3.9668,-4.7789 v -0.6333 h 8.6235 v -0.6296 c 0,-3.7434 -1.8473,-5.7937 -4.799,-5.7937 -2.9435,0 -4.7909,2.0747 -4.7909,5.8059 v 1.2507 c 0,3.5404 1.7864,5.6556 4.9332,5.6556 z m -3.9668,-7.1336 v -0.0488 c 0,-2.9231 1.5021,-4.661 3.8245,-4.661 2.3306,0 3.833,1.7379 3.833,4.661 v 0.0488 z m 12.6921,-5.408 h -2.3063 v 0.8445 h 2.3063 v 8.5589 c 0,2.1923 0.7634,2.9395 3.1669,2.9395 0.4872,0 1.0352,-0.0487 1.2506,-0.0813 v -0.8121 c -0.2154,0.0365 -0.7999,0.0731 -1.1653,0.0731 -1.5956,0 -2.2859,-0.4507 -2.2859,-1.9528 v -8.7253 h 3.2967 v -0.8445 h -3.2967 v -2.9965 h -0.9663 z m 7.5274,0 h -2.3063 v 0.8445 h 2.3063 v 8.5589 c 0,2.1923 0.7634,2.9395 3.1669,2.9395 0.4872,0 1.0352,-0.0487 1.2506,-0.0813 v -0.8121 c -0.2154,0.0365 -0.7999,0.0731 -1.1653,0.0731 -1.5956,0 -2.2859,-0.4507 -2.2859,-1.9528 v -8.7253 h 3.2967 v -0.8445 h -3.2967 v -2.9965 h -0.9663 z m 11.4945,12.5416 c 3.0248,0 4.3361,-1.9244 4.4782,-3.321 h -0.9907 c -0.1299,1.076 -1.1773,2.4443 -3.4875,2.4443 -2.5013,0 -3.9668,-1.7989 -3.9668,-4.7789 v -0.6333 h 8.6235 v -0.6296 c 0,-3.7434 -1.8473,-5.7937 -4.799,-5.7937 -2.9435,0 -4.7908,2.0747 -4.7908,5.8059 v 1.2507 c 0,3.5404 1.7863,5.6556 4.9331,5.6556 z m -3.9668,-7.1336 v -0.0488 c 0,-2.9231 1.5021,-4.661 3.8245,-4.661 2.3306,0 3.833,1.7379 3.833,4.661 v 0.0488 z m 12.0586,6.9145 h 0.9663 v -7.6005 c 0,-2.6878 1.5469,-3.9952 3.4838,-3.9952 0.5601,0 0.9541,0.0689 1.0961,0.1055 v -0.9216 c -0.1664,-0.0243 -0.5116,-0.0853 -1.0108,-0.0853 -2.274,0 -3.2726,1.4006 -3.5203,2.4562 h -0.0488 v -2.2654 h -0.9663 z m 18.3319,0 5.9684,-16.1796 h -1.0718 l -5.3839,14.9655 h -0.0487 l -5.3229,-14.9655 h -1.084 l 5.8751,16.1757 z m 8.7049,0 h 0.9502 v -12.2981 h -0.9502 z m -0.3611,-15.7087 c 0,0.479 0.3654,0.8444 0.8322,0.8444 0.4873,0 0.8649,-0.3654 0.8649,-0.8444 0,-0.4873 -0.3776,-0.8527 -0.8649,-0.8527 -0.4668,0 -0.8322,0.3654 -0.8322,0.8527 z m 5.1035,6.5449 c 0,2.0789 1.5794,2.7935 3.9994,3.3862 1.8025,0.4264 3.577,0.8567 3.577,2.5782 0,1.7257 -1.5715,2.5662 -3.5161,2.5662 -2.6107,0 -3.4798,-1.4942 -3.5243,-2.5175 h -0.9502 c 0,1.5307 1.2467,3.3698 4.4501,3.3698 2.4319,0 4.5148,-1.1367 4.5148,-3.5118 0,-2.2819 -1.9732,-2.8179 -4.263,-3.378 -2.0628,-0.5077 -3.3132,-1.0557 -3.3132,-2.5784 0,-1.5792 1.4293,-2.3996 3.1465,-2.3996 2.4809,0 3.2321,1.535 3.2442,2.4483 h 0.9338 c 0,-1.3884 -1.08,-3.2927 -4.1658,-3.2927 -2.3386,0 -4.1332,1.1531 -4.1332,3.3293 z m 12.079,9.1638 h 0.9501 v -12.2981 h -0.9501 z m -0.3612,-15.7087 c 0,0.479 0.3654,0.8444 0.8323,0.8444 0.4873,0 0.8648,-0.3654 0.8648,-0.8444 0,-0.4873 -0.3775,-0.8527 -0.8648,-0.8527 -0.4669,0 -0.8323,0.3654 -0.8323,0.8527 z m 10.0123,3.2156 c -2.9883,0 -5.0264,2.0098 -5.0264,5.5137 v 1.7257 c 0,3.5161 2.0625,5.4728 5.0264,5.4728 2.9517,0 5.0306,-1.9567 5.0306,-5.4728 v -1.7257 c 0,-3.4918 -2.1033,-5.5137 -5.0306,-5.5137 z m 0,0.8688 c 2.4401,0 4.0561,1.7702 4.0561,4.7789 v 1.4616 c 0,3.041 -1.616,4.7262 -4.0439,4.7262 -2.4767,0 -4.0723,-1.7096 -4.0723,-4.7262 v -1.4616 c 0,-3.033 1.62,-4.7789 4.0601,-4.7789 z m 8.4614,11.6243 h 0.9502 v -7.4463 c 0,-2.217 1.3317,-4.1536 3.8732,-4.1536 2.2371,0 3.439,1.5429 3.439,3.7151 v 7.8848 h 0.9664 v -8.1204 c 0,-2.8137 -1.8352,-4.3727 -4.2713,-4.3727 -2.2615,0 -3.5444,1.275 -3.9628,2.4848 h -0.0445 v -2.2819 h -0.9502 z"/>
  </g>
</svg>